<svg aria-hidden="true" style="position: absolute; width: 0; height: 0; overflow: hidden;" version="1.1" xmlns="http://www.w3.org/2000/svg" xmlns:xlink="http://www.w3.org/1999/xlink">
<defs>
<symbol id="icon-burger" viewBox="0 0 32 32">
  <path d="M2.333 8c0-0.92 0.746-1.667 1.667-1.667h24c0.921 0 1.667 0.746 1.667 1.667s-0.746 1.667-1.667 1.667h-24c-0.92 0-1.667-0.746-1.667-1.667zM2.333 16c0-0.921 0.746-1.667 1.667-1.667h24c0.921 0 1.667 0.746 1.667 1.667s-0.746 1.667-1.667 1.667h-24c-0.92 0-1.667-0.746-1.667-1.667zM2.333 24c0-0.921 0.746-1.667 1.667-1.667h24c0.921 0 1.667 0.746 1.667 1.667s-0.746 1.667-1.667 1.667h-24c-0.92 0-1.667-0.746-1.667-1.667z"></path>
</symbol>
<symbol id="icon-close" viewBox="0 0 32 32">
  <path d="M16 18.828l7.071 7.072c0.375 0.375 0.884 0.586 1.415 0.586s1.039-0.211 1.415-0.586 0.586-0.884 0.586-1.415c0-0.531-0.211-1.039-0.586-1.415l-7.073-7.071 7.072-7.071c0.186-0.186 0.333-0.406 0.433-0.649s0.152-0.503 0.152-0.765c0-0.263-0.052-0.523-0.152-0.765s-0.248-0.463-0.434-0.649c-0.186-0.186-0.406-0.333-0.649-0.433s-0.503-0.152-0.765-0.152-0.523 0.052-0.765 0.152c-0.243 0.101-0.463 0.248-0.649 0.434l-7.069 7.071-7.071-7.071c-0.184-0.191-0.405-0.344-0.649-0.449s-0.506-0.16-0.772-0.163c-0.266-0.002-0.529 0.048-0.775 0.149s-0.469 0.249-0.657 0.437c-0.188 0.188-0.337 0.411-0.437 0.657s-0.151 0.509-0.149 0.775c0.002 0.266 0.057 0.528 0.162 0.772s0.257 0.465 0.448 0.649l7.073 7.072-7.072 7.071c-0.375 0.375-0.586 0.884-0.586 1.415s0.211 1.039 0.586 1.415 0.884 0.586 1.415 0.586c0.531 0 1.039-0.211 1.415-0.586l7.069-7.072z"></path>
</symbol>
<symbol id="icon-home" viewBox="0 0 32 32">
  <path d="M17.933 3.377c-0.541-0.456-1.226-0.706-1.933-0.706s-1.392 0.25-1.933 0.706l-9 7.593c-0.334 0.282-0.603 0.633-0.787 1.029s-0.28 0.828-0.28 1.265v12.407c0 1.288 1.045 2.333 2.333 2.333h4c0.619 0 1.212-0.246 1.65-0.683s0.683-1.031 0.683-1.65v-5.337c0-0.907 0.723-1.643 1.623-1.667h3.421c0.434 0.011 0.847 0.192 1.15 0.503s0.473 0.729 0.473 1.163v5.337c0 1.288 1.045 2.333 2.333 2.333h4c0.619 0 1.212-0.246 1.65-0.683s0.683-1.031 0.683-1.65v-12.408c-0-0.437-0.096-0.868-0.28-1.265s-0.453-0.747-0.787-1.029l-9-7.592z"></path>
</symbol>
<symbol id="icon-mail" viewBox="0 0 32 32">
  <path d="M29.333 10.047v12.62c0 1.020-0.39 2.002-1.090 2.744s-1.657 1.189-2.676 1.249l-0.235 0.007h-18.667c-1.020 0-2.002-0.39-2.744-1.090s-1.189-1.657-1.249-2.676l-0.007-0.235v-12.62l12.593 8.396 0.155 0.088c0.182 0.089 0.382 0.135 0.585 0.135s0.403-0.046 0.585-0.135l0.155-0.088 12.593-8.396z"></path>
  <path d="M25.333 5.333c1.44 0 2.703 0.76 3.407 1.903l-12.74 8.493-12.74-8.493c0.334-0.543 0.794-0.998 1.34-1.327s1.163-0.523 1.799-0.566l0.268-0.009h18.667z"></path>
</symbol>
<symbol id="icon-user" viewBox="0 0 32 32">
  <path d="M28.866 27.5c-0.088 0.152-0.214 0.278-0.366 0.366s-0.325 0.134-0.5 0.134h-24c-0.175-0-0.348-0.047-0.5-0.134s-0.278-0.214-0.366-0.366c-0.088-0.152-0.134-0.324-0.134-0.5s0.046-0.348 0.134-0.5c1.904-3.291 4.838-5.651 8.261-6.77-1.694-1.008-3.009-2.544-3.745-4.373s-0.851-3.848-0.329-5.748 1.655-3.576 3.223-4.771c1.568-1.195 3.484-1.842 5.455-1.842s3.887 0.647 5.455 1.842 2.7 2.871 3.223 4.771c0.523 1.9 0.407 3.92-0.329 5.748s-2.052 3.365-3.745 4.373c3.424 1.119 6.357 3.479 8.261 6.77 0.088 0.152 0.134 0.324 0.135 0.5s-0.046 0.348-0.133 0.5z"></path>
</symbol>
<symbol id="icon-search" viewBox="0 0 32 32">
  <path d="M14 2.667c-1.807 0-3.588 0.433-5.194 1.261s-2.991 2.029-4.039 3.501c-1.048 1.472-1.728 3.174-1.985 4.963s-0.081 3.613 0.511 5.321c0.592 1.707 1.584 3.249 2.893 4.495s2.897 2.161 4.631 2.669 3.565 0.593 5.339 0.25c1.774-0.344 3.441-1.107 4.86-2.225l4.869 4.869c0.252 0.243 0.588 0.377 0.938 0.374s0.684-0.143 0.931-0.39c0.247-0.247 0.387-0.582 0.39-0.931s-0.131-0.686-0.374-0.938l-4.869-4.869c1.317-1.671 2.138-3.68 2.367-5.795s-0.142-4.253-1.071-6.168c-0.929-1.915-2.378-3.529-4.181-4.659s-3.888-1.728-6.016-1.728zM5.333 14c0-2.299 0.913-4.503 2.538-6.128s3.83-2.538 6.128-2.538c2.299 0 4.503 0.913 6.128 2.538s2.538 3.83 2.538 6.128c0 2.299-0.913 4.503-2.538 6.128s-3.83 2.538-6.128 2.538c-2.299 0-4.503-0.913-6.128-2.538s-2.538-3.83-2.538-6.128z"></path>
</symbol>
</defs>
</svg>
