<svg width="24" height="24" viewBox="0 0 24 24" fill="none" xmlns="http://www.w3.org/2000/svg">
<g opacity="0.4">
<path fill-rule="evenodd" clip-rule="evenodd" d="M1.75 6C1.75 5.30964 2.30964 4.75 3 4.75H21C21.6904 4.75 22.25 5.30964 22.25 6C22.25 6.69036 21.6904 7.25 21 7.25H3C2.30964 7.25 1.75 6.69036 1.75 6ZM1.75 12C1.75 11.3096 2.30964 10.75 3 10.75H21C21.6904 10.75 22.25 11.3096 22.25 12C22.25 12.6904 21.6904 13.25 21 13.25H3C2.30964 13.25 1.75 12.6904 1.75 12ZM1.75 18C1.75 17.3096 2.30964 16.75 3 16.75H21C21.6904 16.75 22.25 17.3096 22.25 18C22.25 18.6904 21.6904 19.25 21 19.25H3C2.30964 19.25 1.75 18.6904 1.75 18Z" fill="white"/>
</g>
</svg>
