<svg width="24" height="24" viewBox="0 0 24 24" fill="none" xmlns="http://www.w3.org/2000/svg">
<g clip-path="url(#clip0_77_287)">
<path fill-rule="evenodd" clip-rule="evenodd" d="M12.0001 14.121L17.3031 19.425C17.5845 19.7064 17.9661 19.8645 18.3641 19.8645C18.762 19.8645 19.1437 19.7064 19.4251 19.425C19.7065 19.1436 19.8646 18.7619 19.8646 18.364C19.8646 17.966 19.7065 17.5844 19.4251 17.303L14.1201 12L19.4241 6.69699C19.5634 6.55766 19.6738 6.39226 19.7492 6.21024C19.8245 6.02821 19.8633 5.83313 19.8632 5.63613C19.8632 5.43914 19.8243 5.24407 19.7489 5.06209C19.6735 4.8801 19.5629 4.71475 19.4236 4.57549C19.2843 4.43622 19.1189 4.32576 18.9368 4.25042C18.7548 4.17507 18.5597 4.13631 18.3627 4.13636C18.1657 4.13641 17.9707 4.17526 17.7887 4.25069C17.6067 4.32612 17.4414 4.43666 17.3021 4.57599L12.0001 9.87899L6.69709 4.57599C6.55879 4.43266 6.39333 4.31831 6.21036 4.23961C6.02739 4.16091 5.83058 4.11944 5.63141 4.11762C5.43224 4.11579 5.23471 4.15365 5.05033 4.22899C4.86595 4.30432 4.69842 4.41562 4.55752 4.55639C4.41661 4.69717 4.30515 4.86459 4.22964 5.0489C4.15414 5.23321 4.11609 5.43071 4.11773 5.62988C4.11936 5.82905 4.16065 6.02589 4.23917 6.20894C4.3177 6.39198 4.43189 6.55755 4.57509 6.69599L9.88009 12L4.57609 17.303C4.2947 17.5844 4.13661 17.966 4.13661 18.364C4.13661 18.7619 4.2947 19.1436 4.57609 19.425C4.85749 19.7064 5.23914 19.8645 5.63709 19.8645C6.03504 19.8645 6.4167 19.7064 6.69809 19.425L12.0001 14.12V14.121Z" fill="white"/>
</g>
<defs>
<clipPath id="clip0_77_287">
<rect width="24" height="24" fill="white"/>
</clipPath>
</defs>
</svg>
