<svg width="24" height="24" viewBox="0 0 24 24" fill="none" xmlns="http://www.w3.org/2000/svg">
<g clip-path="url(#clip0_77_291)">
<path d="M22 7.53497V17C22 17.7652 21.7077 18.5015 21.1827 19.0582C20.6578 19.615 19.9399 19.9501 19.176 19.995L19 20H5C4.23479 20 3.49849 19.7076 2.94174 19.1827C2.38499 18.6577 2.04989 17.9399 2.005 17.176L2 17V7.53497L11.445 13.832L11.561 13.898C11.6977 13.9648 11.8478 13.9995 12 13.9995C12.1522 13.9995 12.3023 13.9648 12.439 13.898L12.555 13.832L22 7.53497Z" fill="white"/>
<path d="M19.0001 4C20.0801 4 21.0271 4.57 21.5551 5.427L12.0001 11.797L2.44507 5.427C2.6958 5.01977 3.04028 4.6784 3.44978 4.43138C3.85927 4.18436 4.3219 4.03886 4.79907 4.007L5.00007 4H19.0001Z" fill="white"/>
</g>
<defs>
<clipPath id="clip0_77_291">
<rect width="24" height="24" fill="white"/>
</clipPath>
</defs>
</svg>
