<svg width="44" height="44" viewBox="0 0 44 44" fill="none" xmlns="http://www.w3.org/2000/svg">
<g clip-path="url(#clip0_107_152)">
<path fill-rule="evenodd" clip-rule="evenodd" d="M19.25 3.66675C16.7651 3.66696 14.3162 4.26142 12.1078 5.40052C9.89933 6.53962 7.99531 8.19035 6.55458 10.215C5.11384 12.2396 4.17816 14.5794 3.82561 17.0392C3.47306 19.4989 3.71385 22.0074 4.5279 24.3552C5.34196 26.7029 6.70566 28.822 8.50524 30.5356C10.3048 32.2491 12.4881 33.5075 14.8729 34.2057C17.2577 34.9039 19.7749 35.0216 22.2145 34.5491C24.6541 34.0766 26.9453 33.0275 28.897 31.4894L35.5923 38.1847C35.9381 38.5187 36.4012 38.7035 36.8819 38.6993C37.3626 38.6951 37.8224 38.5023 38.1623 38.1624C38.5022 37.8225 38.695 37.3627 38.6992 36.882C38.7034 36.4013 38.5186 35.9382 38.1846 35.5924L31.4893 28.8971C33.3006 26.5992 34.4284 23.8378 34.7437 20.9289C35.0589 18.02 34.5488 15.0811 33.2717 12.4486C31.9947 9.81605 30.0023 7.59623 27.5225 6.04317C25.0428 4.49011 22.1759 3.66655 19.25 3.66675ZM7.33331 19.2501C7.33331 16.0896 8.58881 13.0585 10.8236 10.8237C13.0584 8.58892 16.0895 7.33341 19.25 7.33341C22.4105 7.33341 25.4415 8.58892 27.6763 10.8237C29.9111 13.0585 31.1666 16.0896 31.1666 19.2501C31.1666 22.4106 29.9111 25.4416 27.6763 27.6764C25.4415 29.9112 22.4105 31.1667 19.25 31.1667C16.0895 31.1667 13.0584 29.9112 10.8236 27.6764C8.58881 25.4416 7.33331 22.4106 7.33331 19.2501Z" fill="#58554F"/>
</g>
<defs>
<clipPath id="clip0_107_152">
<rect width="44" height="44" fill="white"/>
</clipPath>
</defs>
</svg>
