<svg aria-hidden="true" style="position: absolute; width: 0; height: 0; overflow: hidden;" version="1.1" xmlns="http://www.w3.org/2000/svg" xmlns:xlink="http://www.w3.org/1999/xlink">
<defs>
<symbol id="icon-search" viewBox="0 0 32 32">
<path fill="#58554f" style="fill: var(--color1, #58554f)" d="M14 2.667c-1.807 0-3.588 0.433-5.194 1.261s-2.991 2.029-4.039 3.501c-1.048 1.472-1.728 3.174-1.985 4.963s-0.081 3.613 0.511 5.321c0.592 1.707 1.584 3.249 2.893 4.495s2.897 2.161 4.631 2.669 3.565 0.593 5.339 0.25c1.774-0.344 3.441-1.107 4.86-2.225l4.869 4.869c0.252 0.243 0.588 0.377 0.938 0.374s0.684-0.143 0.931-0.39c0.247-0.247 0.387-0.582 0.39-0.931s-0.131-0.686-0.374-0.938l-4.869-4.869c1.317-1.671 2.138-3.68 2.367-5.795s-0.142-4.253-1.071-6.168c-0.929-1.915-2.378-3.529-4.181-4.659s-3.888-1.728-6.016-1.728zM5.333 14c0-2.299 0.913-4.503 2.538-6.128s3.83-2.538 6.128-2.538c2.299 0 4.503 0.913 6.128 2.538s2.538 3.83 2.538 6.128c0 2.299-0.913 4.503-2.538 6.128s-3.83 2.538-6.128 2.538c-2.299 0-4.503-0.913-6.128-2.538s-2.538-3.83-2.538-6.128z"></path>
</symbol>
</defs>
</svg>
