<svg width="24" height="24" viewBox="0 0 24 24" fill="none" xmlns="http://www.w3.org/2000/svg">
<path d="M21.6497 20.625C21.5838 20.739 21.4891 20.8337 21.3751 20.8995C21.261 20.9654 21.1316 21 21 21H2.99996C2.86838 20.9999 2.73914 20.9651 2.62523 20.8992C2.51133 20.8333 2.41676 20.7386 2.35102 20.6247C2.28529 20.5107 2.2507 20.3814 2.25073 20.2498C2.25077 20.1182 2.28542 19.9889 2.35121 19.875C3.77903 17.4065 5.97934 15.6365 8.54715 14.7975C7.277 14.0414 6.29016 12.8892 5.7382 11.5179C5.18624 10.1467 5.09967 8.63211 5.49178 7.20688C5.8839 5.78165 6.73301 4.52454 7.90874 3.6286C9.08446 2.73266 10.5218 2.24744 12 2.24744C13.4781 2.24744 14.9155 2.73266 16.0912 3.6286C17.2669 4.52454 18.116 5.78165 18.5081 7.20688C18.9003 8.63211 18.8137 10.1467 18.2617 11.5179C17.7098 12.8892 16.7229 14.0414 15.4528 14.7975C18.0206 15.6365 20.2209 17.4065 21.6487 19.875C21.7147 19.9889 21.7495 20.1182 21.7497 20.2499C21.7498 20.3815 21.7153 20.5109 21.6497 20.625Z" fill="white"/>
</svg>
